<svg width="92" height="137" viewBox="0 0 92 137" fill="none" xmlns="http://www.w3.org/2000/svg">
<path d="M91.9494 16.1176C91.9494 25.0192 84.654 32.2353 75.6546 32.2353C66.6552 32.2353 59.3598 25.0192 59.3598 16.1176C59.3598 7.21612 66.6552 0 75.6546 0C84.654 0 91.9494 7.21612 91.9494 16.1176Z" fill="#FBBF24"/>
<path d="M66.3432 104.189C66.3432 122.31 51.4918 137 33.1716 137C14.8514 137 0 122.31 0 104.189C0 86.0681 14.8514 71.3782 33.1716 71.3782C51.4918 71.3782 66.3432 86.0681 66.3432 104.189Z" fill="#BAE6FD"/>
<path fill-rule="evenodd" clip-rule="evenodd" d="M33.1716 133.392C49.5364 133.392 62.7351 120.28 62.7351 104.189C62.7351 88.098 49.5364 74.9863 33.1716 74.9863C16.8069 74.9863 3.60814 88.098 3.60814 104.189C3.60814 120.28 16.8069 133.392 33.1716 133.392ZM33.1716 137C51.4918 137 66.3432 122.31 66.3432 104.189C66.3432 86.0681 51.4918 71.3782 33.1716 71.3782C14.8514 71.3782 0 86.0681 0 104.189C0 122.31 14.8514 137 33.1716 137Z" fill="#BAE6FD"/>
</svg>
