<svg width="58" height="58" viewBox="0 0 58 58" fill="none" xmlns="http://www.w3.org/2000/svg">
<path fill-rule="evenodd" clip-rule="evenodd" d="M14.1518 8.74204C17.3763 6.5875 21.1672 5.43752 25.0453 5.43752V7.25002L25.0454 5.43752C30.2456 5.43785 35.2327 7.50377 38.9098 11.1809C42.5869 14.8579 44.6528 19.8451 44.6532 25.0452V25.0454C44.6532 28.9234 43.5032 32.7144 41.3486 35.9389C39.1941 39.1634 36.1318 41.6766 32.5489 43.1606C28.966 44.6447 25.0236 45.033 21.22 44.2764C17.4165 43.5199 13.9227 41.6524 11.1805 38.9102C8.43827 36.168 6.5708 32.6742 5.81423 28.8707C5.05765 25.0671 5.44596 21.1246 6.93003 17.5418C8.4141 13.9589 10.9273 10.8966 14.1518 8.74204ZM25.0453 9.06252C29.2841 9.06282 33.3493 10.7468 36.3466 13.7441C39.3439 16.7414 41.0279 20.8065 41.0282 25.0454M25.0452 9.06252C21.8841 9.06254 18.7941 9.99992 16.1657 11.7561C13.5374 13.5123 11.4888 16.0085 10.2791 18.929C9.06938 21.8495 8.75287 25.0631 9.36957 28.1635C9.98627 31.2638 11.5085 34.1117 13.7437 36.3469C15.979 38.5822 18.8268 40.1044 21.9272 40.7211C25.0276 41.3378 28.2412 41.0213 31.1617 39.8116C34.0822 38.6019 36.5783 36.5533 38.3346 33.925C40.0908 31.2966 41.0281 28.2065 41.0282 25.0455" fill="white"/>
<path fill-rule="evenodd" clip-rule="evenodd" d="M37.0403 37.0403C37.7481 36.3325 38.8957 36.3325 39.6035 37.0403L52.0316 49.4684C52.7394 50.1762 52.7394 51.3238 52.0316 52.0317C51.3238 52.7395 50.1762 52.7395 49.4683 52.0317L37.0403 39.6036C36.3324 38.8958 36.3324 37.7482 37.0403 37.0403Z" fill="white"/>
</svg>
