<svg width="45" height="42" viewBox="0 0 45 42" fill="none" xmlns="http://www.w3.org/2000/svg">
<path fill-rule="evenodd" clip-rule="evenodd" d="M4.16643 14.4904C4.22057 9.49955 8.41585 5.24988 13.808 5.24988C17.1178 5.24988 19.5523 6.79818 21.1059 8.25598C21.5385 8.66188 21.9098 9.06677 22.2206 9.4401C22.5314 9.06677 22.9027 8.66188 23.3353 8.25598C24.8889 6.79818 27.3234 5.24988 30.6332 5.24988C36.0253 5.24988 40.2206 9.49955 40.2748 14.4904L40.2748 14.4907C40.3775 24.2247 32.1016 30.9588 23.783 36.2953C23.3222 36.5916 22.7779 36.75 22.2206 36.75C21.6633 36.75 21.119 36.5916 20.6582 36.2953C12.3388 30.9588 4.0628 24.2246 4.16643 14.4906L4.16643 14.4904ZM23.4611 12.4026C23.2252 12.8454 22.7454 13.1249 22.2206 13.1249C21.6959 13.1249 21.216 12.8454 20.9802 12.4026C20.9799 12.4021 20.9793 12.401 20.9785 12.3995C20.9768 12.3964 20.974 12.3913 20.97 12.3843C20.968 12.3805 20.9656 12.3763 20.9629 12.3715C20.9473 12.3439 20.9213 12.2988 20.885 12.2389C20.8122 12.1188 20.6986 11.9399 20.5443 11.7219C20.2341 11.2837 19.7679 10.6996 19.1489 10.1188C17.905 8.95157 16.1333 7.87488 13.808 7.87488C10.0412 7.87488 6.9836 10.8668 6.94386 14.517M23.4611 12.4026C23.4614 12.402 23.4619 12.401 23.4627 12.3995C23.4653 12.3947 23.4705 12.3853 23.4783 12.3715C23.4939 12.3439 23.5199 12.2988 23.5562 12.2389C23.629 12.1188 23.7426 11.9399 23.8969 11.7219C24.2071 11.2837 24.6733 10.6996 25.2923 10.1188C26.5362 8.95157 28.3079 7.87488 30.6332 7.87488C34.3999 7.87488 37.4575 10.8667 37.4973 14.5169C37.5839 22.7194 30.6134 28.741 22.2218 34.1242L22.2206 34.125L22.2193 34.1242C13.8269 28.741 6.85668 22.7196 6.94386 14.5173" fill="white"/>
</svg>
