<svg width="185" height="176" viewBox="0 0 185 176" fill="none" xmlns="http://www.w3.org/2000/svg">
<rect width="184.386" height="176" rx="20" fill="white"/>
<path fill-rule="evenodd" clip-rule="evenodd" d="M82.9439 131.23C101.327 131.23 116.104 117.277 116.104 100.21C116.104 83.1429 101.327 69.1893 82.9439 69.1893C64.5609 69.1893 49.7842 83.1429 49.7842 100.21C49.7842 117.277 64.5609 131.23 82.9439 131.23ZM82.9439 139.943C106.349 139.943 125.323 122.154 125.323 100.21C125.323 78.2656 106.349 60.4764 82.9439 60.4764C59.5386 60.4764 40.5649 78.2656 40.5649 100.21C40.5649 122.154 59.5386 139.943 82.9439 139.943Z" fill="#BFDBFE"/>
<path d="M102.205 87.6331L114.397 44.6312L147.706 76.1108L102.205 87.6331Z" fill="#FBBF24"/>
</svg>
