<svg width="64" height="64" viewBox="0 0 64 64" fill="none" xmlns="http://www.w3.org/2000/svg">
<path d="M38.6667 22.6667C36.5848 22.127 33.6917 21.3334 31.3725 21.3334C19.937 21.3334 10.6667 28.447 10.6667 37.2222C10.6667 42.2648 13.7278 46.7587 18.502 49.6696L17.2085 53.9358C16.8969 54.9632 17.6659 56 18.7396 56H23.4439C23.7903 56 24.1273 55.8878 24.4043 55.6798L28.1232 52.8888H34.6216L38.3405 55.6798C38.6176 55.8878 38.9547 56 39.3011 56H44.0053C45.0789 56 45.848 54.9632 45.5363 53.9358L44.2429 49.6696C47.0872 47.9355 49.3235 45.6392 50.6667 43" stroke="#7E22CE" stroke-width="1.5" stroke-linecap="round" stroke-linejoin="round"/>
<path d="M38.6667 22.6666L50.6667 18.6666L50.4427 28.3421L56 30.6666V40L50.8643 42.6666" stroke="#7E22CE" stroke-width="1.5" stroke-linecap="round" stroke-linejoin="round"/>
<path d="M41.3333 34.6667C40.5971 34.6667 40 34.0696 40 33.3333C40 32.5971 40.5971 32 41.3333 32C42.0696 32 42.6667 32.5971 42.6667 33.3333C42.6667 34.0696 42.0696 34.6667 41.3333 34.6667Z" fill="#7E22CE" stroke="#7E22CE" stroke-width="1.5" stroke-linecap="round" stroke-linejoin="round"/>
<path d="M5.33334 26.6666C5.33334 26.6666 5.33334 33.0666 10.6667 34.6666" stroke="#7E22CE" stroke-width="1.5" stroke-linecap="round" stroke-linejoin="round"/>
<path d="M34.1355 20.6746C34.4795 19.6835 34.6667 18.617 34.6667 17.5059C34.6667 12.2559 30.488 8 25.3333 8C20.1787 8 16 12.2559 16 17.5059C16 20.017 16.956 22.3007 18.5174 24" stroke="#7E22CE" stroke-width="1.5" stroke-linejoin="round"/>
</svg>
