<svg width="64" height="64" viewBox="0 0 64 64" fill="none" xmlns="http://www.w3.org/2000/svg">
<path d="M43.9264 53.3333H10.9333C10.0497 53.3333 9.33331 52.6171 9.33331 51.7333V25.6C9.33331 24.7164 10.0497 24 10.9333 24H18.3136C20.187 24 21.9231 23.0171 22.8869 21.4107L30.1146 9.3643C31.6744 6.76502 35.3477 6.51793 37.2413 8.88497C38.1338 10.0007 38.4216 11.4836 38.0109 12.8522L35.2845 21.9403C34.9765 22.9668 35.7453 24 36.817 24H49.0173C52.5338 24 55.088 27.344 54.1626 30.7365L49.0717 49.4032C48.4389 51.7237 46.3314 53.3333 43.9264 53.3333Z" stroke="#7E22CE" stroke-width="1.5" stroke-linecap="round"/>
<path d="M18.6667 53.3333V24" stroke="#7E22CE" stroke-width="1.5" stroke-linecap="round" stroke-linejoin="round"/>
</svg>
