<svg width="269" height="48" viewBox="0 0 269 48" fill="none" xmlns="http://www.w3.org/2000/svg">
<path d="M0 7.2C0 3.22355 3.22355 0 7.2 0H108C111.976 0 115.2 3.22355 115.2 7.2C115.2 11.1765 111.976 14.4 108 14.4H7.2C3.22355 14.4 0 11.1765 0 7.2Z" fill="white"/>
<path d="M0 40.8C0 36.8235 3.22355 33.6 7.2 33.6H162C165.976 33.6 169.2 36.8235 169.2 40.8C169.2 44.7764 165.976 48 162 48H7.2C3.22355 48 0 44.7764 0 40.8Z" fill="white"/>
<path d="M134.4 7.2C134.4 3.22355 137.624 0 141.6 0H261.6C265.576 0 268.8 3.22355 268.8 7.2C268.8 11.1765 265.576 14.4 261.6 14.4H141.6C137.624 14.4 134.4 11.1765 134.4 7.2Z" fill="white"/>
</svg>
