<svg width="207" height="35" viewBox="0 0 207 35" fill="none" xmlns="http://www.w3.org/2000/svg">
<path d="M0 5.24007C0 2.34606 2.48242 0 5.54464 0H83.1696C86.2319 0 88.7143 2.34606 88.7143 5.24007C88.7143 8.13408 86.2319 10.4801 83.1696 10.4801H5.54464C2.48242 10.4801 0 8.13408 0 5.24007Z" fill="white"/>
<path d="M0 29.6937C0 26.7997 2.48242 24.4537 5.54464 24.4537H124.754C127.817 24.4537 130.299 26.7997 130.299 29.6937C130.299 32.5877 127.817 34.9338 124.754 34.9338H5.54464C2.48242 34.9338 0 32.5877 0 29.6937Z" fill="white"/>
<path d="M103.5 5.24007C103.5 2.34606 105.982 0 109.045 0H201.455C204.518 0 207 2.34606 207 5.24007C207 8.13408 204.518 10.4801 201.455 10.4801H109.045C105.982 10.4801 103.5 8.13408 103.5 5.24007Z" fill="white"/>
</svg>
