<svg width="1193" height="171" viewBox="0 0 1193 171" fill="none" xmlns="http://www.w3.org/2000/svg">
<circle cx="1119" cy="96.5" r="74" fill="#FBBF24"/>
<path d="M89 0C89 5.84382 87.849 11.6304 85.6126 17.0294C83.3763 22.4284 80.0985 27.334 75.9662 31.4663C71.834 35.5985 66.9284 38.8763 61.5294 41.1126C56.1304 43.349 50.3438 44.5 44.5 44.5C38.6562 44.5 32.8696 43.349 27.4706 41.1126C22.0716 38.8763 17.166 35.5985 13.0337 31.4662C8.90154 27.334 5.62369 22.4284 3.38736 17.0294C1.15103 11.6304 -5.10883e-07 5.84382 0 -3.8147e-06L44.5 0H89Z" fill="#7E22CE"/>
</svg>
