<svg width="344" height="236" viewBox="0 0 344 236" fill="none" xmlns="http://www.w3.org/2000/svg">
<mask id="mask0_0_185" style="mask-type:alpha" maskUnits="userSpaceOnUse" x="0" y="0" width="344" height="236">
<path d="M0 24.0559C0 10.7702 10.7702 0 24.0559 0H319.944C333.23 0 344 10.7702 344 24.0559V211.692C344 224.978 333.23 235.748 319.944 235.748H24.0559C10.7702 235.748 0 224.978 0 211.692V24.0559Z" fill="white"/>
</mask>
<g mask="url(#mask0_0_185)">
<path d="M0 0H211.692L0 202.07V0Z" fill="#BAE6FD"/>
<path d="M399.329 211.692C399.329 252.878 365.941 286.266 324.755 286.266C283.569 286.266 250.182 252.878 250.182 211.692C250.182 170.507 283.569 137.119 324.755 137.119C365.941 137.119 399.329 170.507 399.329 211.692Z" fill="#FBBF24"/>
<path d="M324.755 147.944C324.755 189.794 290.829 223.72 248.979 223.72C207.129 223.72 173.203 189.794 173.203 147.944C173.203 106.094 207.129 72.1678 248.979 72.1678C290.829 72.1678 324.755 106.094 324.755 147.944Z" fill="white"/>
<path fill-rule="evenodd" clip-rule="evenodd" d="M248.979 211.692C284.186 211.692 312.727 183.151 312.727 147.944C312.727 112.737 284.186 84.1958 248.979 84.1958C213.772 84.1958 185.231 112.737 185.231 147.944C185.231 183.151 213.772 211.692 248.979 211.692ZM248.979 223.72C290.829 223.72 324.755 189.794 324.755 147.944C324.755 106.094 290.829 72.1678 248.979 72.1678C207.129 72.1678 173.203 106.094 173.203 147.944C173.203 189.794 207.129 223.72 248.979 223.72Z" fill="#E0F2FE"/>
</g>
</svg>
