<svg width="58" height="58" viewBox="0 0 58 58" fill="none" xmlns="http://www.w3.org/2000/svg">
<path fill-rule="evenodd" clip-rule="evenodd" d="M20.0098 5.43899C20.8679 5.47325 21.5841 6.10499 21.7253 6.95207L27.6535 42.5213L32.6947 24.8771C32.913 24.113 33.6036 23.5802 34.3981 23.563C35.1926 23.5457 35.9057 24.048 36.157 24.8019L39.3689 34.4376H45.3125C46.3135 34.4376 47.125 35.249 47.125 36.2501C47.125 37.2511 46.3135 38.0626 45.3125 38.0626H38.0625C37.2823 38.0626 36.5897 37.5633 36.343 36.8232L34.5707 31.5064L28.9303 51.248C28.6974 52.0628 27.9311 52.6076 27.085 52.5597C26.2389 52.5117 25.539 51.8839 25.3996 51.048L19.5823 16.1439L14.4459 36.6897C14.2441 37.4965 13.5192 38.0626 12.6875 38.0626H5.43748C4.43646 38.0626 3.62498 37.2511 3.62498 36.2501C3.62498 35.249 4.43646 34.4376 5.43748 34.4376H11.2723L18.1791 6.81045C18.3874 5.97732 19.1517 5.40472 20.0098 5.43899Z" fill="white"/>
<path fill-rule="evenodd" clip-rule="evenodd" d="M48.9375 34.4375C47.9365 34.4375 47.125 35.249 47.125 36.25C47.125 37.251 47.9365 38.0625 48.9375 38.0625C49.9386 38.0625 50.75 37.251 50.75 36.25C50.75 35.249 49.9386 34.4375 48.9375 34.4375ZM43.5 36.25C43.5 33.2469 45.9345 30.8125 48.9375 30.8125C51.9406 30.8125 54.375 33.2469 54.375 36.25C54.375 39.253 51.9406 41.6875 48.9375 41.6875C45.9345 41.6875 43.5 39.253 43.5 36.25Z" fill="white"/>
</svg>
