<svg width="258" height="143" viewBox="0 0 258 143" fill="none" xmlns="http://www.w3.org/2000/svg">
<mask id="mask0_0_287" style="mask-type:alpha" maskUnits="userSpaceOnUse" x="0" y="0" width="344" height="236">
<path d="M0 24C0 10.7452 10.7452 0 24 0H319.2C332.455 0 343.2 10.7452 343.2 24V211.2C343.2 224.455 332.455 235.2 319.2 235.2H24C10.7452 235.2 0 224.455 0 211.2V24Z" fill="white"/>
</mask>
<g mask="url(#mask0_0_287)">
<path d="M258 78.5999C258 91.5234 247.523 102 234.6 102C221.677 102 211.2 91.5234 211.2 78.5999C211.2 65.6765 221.677 55.2 234.6 55.2C247.523 55.2 258 65.6765 258 78.5999Z" fill="#FBBF24"/>
<path d="M178.8 45C178.8 99.0134 135.013 142.8 81 142.8C26.9866 142.8 -16.8 99.0134 -16.8 45C-16.8 -9.01349 26.9866 -52.8 81 -52.8C135.013 -52.8 178.8 -9.01349 178.8 45Z" fill="white"/>
<path fill-rule="evenodd" clip-rule="evenodd" d="M81 130.8C128.386 130.8 166.8 92.386 166.8 45C166.8 -2.38607 128.386 -40.8 81 -40.8C33.614 -40.8 -4.79999 -2.38607 -4.79999 45C-4.79999 92.386 33.614 130.8 81 130.8ZM81 142.8C135.013 142.8 178.8 99.0134 178.8 45C178.8 -9.01349 135.013 -52.8 81 -52.8C26.9866 -52.8 -16.8 -9.01349 -16.8 45C-16.8 99.0134 26.9866 142.8 81 142.8Z" fill="#E0F2FE"/>
</g>
</svg>
