<svg width="185" height="298" viewBox="0 0 185 298" fill="none" xmlns="http://www.w3.org/2000/svg">
<g clip-path="url(#clip0_0_142)">
<rect width="184.398" height="298" rx="20" fill="white"/>
<path d="M226.81 214.787C226.81 236.201 208.647 253.561 186.242 253.561C163.837 253.561 145.674 236.201 145.674 214.787C145.674 193.372 163.837 176.012 186.242 176.012C208.647 176.012 226.81 193.372 226.81 214.787Z" fill="white"/>
<path fill-rule="evenodd" clip-rule="evenodd" d="M186.242 250.947C207.09 250.947 224.044 234.786 224.044 214.787C224.044 194.788 207.09 178.626 186.242 178.626C165.394 178.626 148.44 194.788 148.44 214.787C148.44 234.786 165.394 250.947 186.242 250.947ZM186.242 253.561C208.647 253.561 226.81 236.201 226.81 214.787C226.81 193.372 208.647 176.012 186.242 176.012C163.837 176.012 145.674 193.372 145.674 214.787C145.674 236.201 163.837 253.561 186.242 253.561Z" fill="#BFDBFE"/>
<path d="M153.05 104.997C153.05 133.63 128.696 156.842 98.653 156.842C68.6101 156.842 44.2555 133.63 44.2555 104.997C44.2555 76.3638 68.6101 53.152 98.653 53.152C128.696 53.152 153.05 76.3638 153.05 104.997Z" fill="#BFDBFE"/>
<path d="M34.1136 204.766L36.7149 211.839L44.636 211.991L38.3226 216.515L40.6168 223.681L34.1136 219.405L27.6105 223.681L29.9047 216.515L23.5913 211.991L31.5124 211.839L34.1136 204.766Z" fill="#FBBF24"/>
<path d="M71.9152 204.766L74.5165 211.839L82.4376 211.991L76.1242 216.515L78.4184 223.681L71.9152 219.405L65.4121 223.681L67.7063 216.515L61.3929 211.991L69.314 211.839L71.9152 204.766Z" fill="#FBBF24"/>
<path d="M109.717 204.766L112.318 211.839L120.239 211.991L113.926 216.515L116.22 223.681L109.717 219.405L103.214 223.681L105.508 216.515L99.1945 211.991L107.116 211.839L109.717 204.766Z" fill="#FBBF24"/>
<path d="M147.518 204.766L150.12 211.839L158.041 211.991L151.727 216.515L154.022 223.681L147.518 219.405L141.015 223.681L143.309 216.515L136.996 211.991L144.917 211.839L147.518 204.766Z" fill="#FBBF24"/>
<path d="M185.32 204.766L187.921 211.839L195.842 211.991L189.529 216.515L191.823 223.681L185.32 219.405L178.817 223.681L181.111 216.515L174.798 211.991L182.719 211.839L185.32 204.766Z" fill="#FBBF24"/>
</g>
<defs>
<clipPath id="clip0_0_142">
<rect width="184.398" height="298" rx="20" fill="white"/>
</clipPath>
</defs>
</svg>
