<svg width="58" height="58" viewBox="0 0 58 58" fill="none" xmlns="http://www.w3.org/2000/svg">
<path fill-rule="evenodd" clip-rule="evenodd" d="M29.5631 10.7651C30.6248 11.8268 30.6248 13.5482 29.5631 14.61L15.173 29L29.5631 43.3901C30.6248 44.4518 30.6248 46.1733 29.5631 47.235C28.5013 48.2967 26.7799 48.2967 25.7182 47.235L9.40567 30.9225C8.34393 29.8608 8.34393 28.1393 9.40567 27.0776L25.7182 10.7651C26.7799 9.70334 28.5013 9.70334 29.5631 10.7651Z" fill="white"/>
<path fill-rule="evenodd" clip-rule="evenodd" d="M10.875 29C10.875 27.4985 12.0922 26.2812 13.5937 26.2812H46.6719C48.1734 26.2812 49.3906 27.4985 49.3906 29C49.3906 30.5015 48.1734 31.7187 46.6719 31.7187H13.5937C12.0922 31.7187 10.875 30.5015 10.875 29Z" fill="white"/>
</svg>
