<svg width="64" height="64" viewBox="0 0 64 64" fill="none" xmlns="http://www.w3.org/2000/svg">
<path d="M45.3333 58.6666H18.6667C15.7211 58.6666 13.3333 56.2789 13.3333 53.3333V29.8178C13.3333 29.5018 13.2398 29.193 13.0646 28.9301L8.26872 21.7364C8.09349 21.4736 8 21.1648 8 20.8489V6.93331C8 6.04966 8.71635 5.33331 9.6 5.33331H14.4C15.2837 5.33331 16 6.04966 16 6.93331V11.7333C16 12.617 16.7163 13.3333 17.6 13.3333H25.0667C25.9503 13.3333 26.6667 12.617 26.6667 11.7333V6.93331C26.6667 6.04966 27.3829 5.33331 28.2667 5.33331H35.7333C36.6171 5.33331 37.3333 6.04966 37.3333 6.93331V11.7333C37.3333 12.617 38.0496 13.3333 38.9333 13.3333H46.4C47.2837 13.3333 48 12.617 48 11.7333V6.93331C48 6.04966 48.7163 5.33331 49.6 5.33331H54.4C55.2837 5.33331 56 6.04966 56 6.93331V20.8489C56 21.1648 55.9064 21.4736 55.7312 21.7364L50.9355 28.9301C50.7603 29.193 50.6667 29.5018 50.6667 29.8178V53.3333C50.6667 56.2789 48.2789 58.6666 45.3333 58.6666Z" stroke="#7E22CE" stroke-width="1.5"/>
</svg>
