<svg width="185" height="267" viewBox="0 0 185 267" fill="none" xmlns="http://www.w3.org/2000/svg">
<g clip-path="url(#clip0_0_137)">
<rect width="184.653" height="267" rx="20" fill="white"/>
<path fill-rule="evenodd" clip-rule="evenodd" d="M173.112 301.029C224.867 301.029 266.823 261.378 266.823 212.466C266.823 163.553 224.867 123.902 173.112 123.902C121.357 123.902 79.4008 163.553 79.4008 212.466C79.4008 261.378 121.357 301.029 173.112 301.029ZM173.112 309.755C229.967 309.755 276.056 266.197 276.056 212.466C276.056 158.734 229.967 115.176 173.112 115.176C116.258 115.176 70.1681 158.734 70.1681 212.466C70.1681 266.197 116.258 309.755 173.112 309.755Z" fill="#FBBF24"/>
<path d="M96.9428 79.5994C96.9428 96.0929 82.6819 109.464 65.0902 109.464C47.4984 109.464 33.2375 96.0929 33.2375 79.5994C33.2375 63.1059 47.4984 49.7352 65.0902 49.7352C82.6819 49.7352 96.9428 63.1059 96.9428 79.5994Z" fill="#BFDBFE"/>
<path fill-rule="evenodd" clip-rule="evenodd" d="M65.0902 106.846C81.173 106.846 94.173 94.6276 94.173 79.5994C94.173 64.5712 81.173 52.3529 65.0902 52.3529C49.0073 52.3529 36.0073 64.5712 36.0073 79.5994C36.0073 94.6276 49.0073 106.846 65.0902 106.846ZM65.0902 109.464C82.6819 109.464 96.9428 96.0929 96.9428 79.5994C96.9428 63.1059 82.6819 49.7352 65.0902 49.7352C47.4984 49.7352 33.2375 63.1059 33.2375 79.5994C33.2375 96.0929 47.4984 109.464 65.0902 109.464Z" fill="#BFDBFE"/>
</g>
<defs>
<clipPath id="clip0_0_137">
<rect width="184.653" height="267" rx="20" fill="white"/>
</clipPath>
</defs>
</svg>
